<svg width="527" height="72" viewBox="0 0 527 72" fill="none" xmlns="http://www.w3.org/2000/svg">
<path d="M105.45 11.87H115.02L123.74 28.71L132.44 11.87H141.88L128.18 38.41V58.69H119.21V38.41L105.45 11.87Z" fill="black"/>
<path d="M168.93 10.91C175.4 10.91 180.96 13.25 185.62 17.93C190.27 22.62 192.61 28.32 192.61 35.06C192.61 41.8 190.31 47.38 185.71 52C181.12 56.63 175.55 58.93 169 58.93C162.45 58.93 156.43 56.55 151.89 51.81C147.35 47.07 145.08 41.43 145.08 34.9C145.08 30.53 146.14 26.51 148.25 22.84C150.37 19.17 153.28 16.26 156.97 14.11C160.68 11.97 164.66 10.91 168.93 10.91ZM168.84 19.42C164.6 19.42 161.05 20.89 158.17 23.83C155.29 26.77 153.84 30.52 153.84 35.06C153.84 40.12 155.66 44.12 159.29 47.05C162.11 49.36 165.34 50.5 169 50.5C173.13 50.5 176.64 49.01 179.54 46.02C182.44 43.05 183.89 39.37 183.89 34.99C183.89 30.61 182.43 26.96 179.51 23.94C176.58 20.93 173.03 19.42 168.84 19.42Z" fill="black"/>
<path d="M202.97 11.87H211.52L231.56 42.68V11.87H240.46V58.69H231.89L211.89 27.98V58.69H202.97V11.87Z" fill="black"/>
<path d="M295.62 19.51L289.48 25.56C285.61 21.47 281.09 19.41 275.93 19.41C271.43 19.41 267.65 20.89 264.62 23.89C261.57 26.87 260.07 30.5 260.07 34.76C260.07 39.02 261.64 42.92 264.79 45.98C267.95 49.04 271.84 50.58 276.47 50.58C279.47 50.58 282 49.95 284.07 48.68C286.13 47.42 287.8 45.45 289.06 42.75H275.82V34.57H298.82L298.88 36.49C298.88 40.49 297.84 44.29 295.77 47.87C293.7 51.45 291.01 54.19 287.72 56.07C284.43 57.95 280.56 58.9 276.13 58.9C271.38 58.9 267.15 57.87 263.43 55.8C259.72 53.74 256.77 50.8 254.61 46.99C252.44 43.17 251.35 39.06 251.35 34.65C251.35 28.6 253.35 23.34 257.36 18.86C262.1 13.54 268.27 10.87 275.88 10.87C279.86 10.87 283.58 11.61 287.04 13.08C289.96 14.32 292.83 16.45 295.62 19.48" fill="black"/>
<path d="M375.06 19.85L368.97 25.65C364.83 21.28 360.18 19.09 354.99 19.09C350.62 19.09 346.95 20.58 343.95 23.57C340.96 26.56 339.46 30.23 339.46 34.61C339.46 37.66 340.12 40.38 341.44 42.74C342.77 45.1 344.64 46.96 347.06 48.3C349.5 49.65 352.19 50.32 355.14 50.32C357.66 50.32 359.97 49.85 362.06 48.91C364.15 47.95 366.45 46.24 368.96 43.75L374.87 49.91C371.48 53.21 368.3 55.49 365.3 56.76C362.28 58.04 358.86 58.68 355 58.68C347.89 58.68 342.08 56.42 337.55 51.92C333.02 47.41 330.75 41.64 330.75 34.59C330.75 30.04 331.78 26 333.84 22.45C335.9 18.9 338.86 16.05 342.69 13.9C346.54 11.74 350.68 10.67 355.12 10.67C358.88 10.67 362.52 11.46 366.01 13.06C369.51 14.65 372.51 16.92 375.04 19.86" fill="black"/>
<path d="M386.14 11.87H395.18V29.54H410.8V11.87H419.81V58.69H410.8V38.16H395.18V58.69H386.14V11.87Z" fill="black"/>
<path d="M443.29 11.87H434.44V58.69H443.29V11.87Z" fill="black"/>
<path d="M456.9 11.87H482.45V20.59H465.75V29.06H482.45V37.61H465.75V49.95H482.45V58.69H456.9V11.87Z" fill="black"/>
<path d="M493.17 11.87H502.21V29.54H517.83V11.87H526.83V58.69H517.83V38.16H502.21V58.69H493.17V11.87Z" fill="black"/>
<path d="M48.36 0H0L24.18 40.29L48.36 0Z" fill="black"/>
<path d="M37.4598 71.79L80.6698 0H64.5498L21.3398 71.79H37.4598Z" fill="black"/>
</svg>
